<svg width="400" height="400" viewBox="0 0 400 400" fill="none" xmlns="http://www.w3.org/2000/svg">
  <circle cx="200" cy="200" r="180" fill="#00BCD4" fill-opacity="0.1"/>
  <path d="M200 80C133.726 80 80 133.726 80 200C80 266.274 133.726 320 200 320C266.274 320 320 266.274 320 200C320 133.726 266.274 80 200 80ZM200 300C144.772 300 100 255.228 100 200C100 144.772 144.772 100 200 100C255.228 100 300 144.772 300 200C300 255.228 255.228 300 200 300Z" fill="#0D47A1"/>
  <path d="M240 160C240 148.954 231.046 140 220 140H180C168.954 140 160 148.954 160 160V240C160 251.046 168.954 260 180 260H220C231.046 260 240 251.046 240 240V160Z" fill="#00BCD4"/>
  <path d="M220 180H180V220H220V180Z" fill="white"/>
  <circle cx="200" cy="150" r="10" fill="#00BCD4"/>
  <circle cx="200" cy="250" r="10" fill="#00BCD4"/>
  <circle cx="150" cy="200" r="10" fill="#00BCD4"/>
  <circle cx="250" cy="200" r="10" fill="#00BCD4"/>
</svg>
